<?xml version="1.0" standalone="no"?>
<!DOCTYPE svg PUBLIC "-//W3C//DTD SVG 20010904//EN"
 "http://www.w3.org/TR/2001/REC-SVG-20010904/DTD/svg10.dtd">
<svg version="1.0" xmlns="http://www.w3.org/2000/svg"
 width="260.000000pt" height="260.000000pt" viewBox="0 0 260.000000 260.000000"
 preserveAspectRatio="xMidYMid meet">
<metadata>
Created by potrace 1.14, written by Peter Selinger 2001-2017
</metadata>
<g transform="translate(0.000000,260.000000) scale(0.100000,-0.100000)"
fill="#000000" stroke="none">
<path d="M979 2512 c-1 -4 -2 -20 -3 -36 -1 -38 -14 -41 -141 -40 l-105 1 0
-37 c0 -45 -4 -47 -92 -44 l-67 1 -3 -41 c-3 -40 -4 -41 -40 -40 -36 1 -38 -1
-38 -30 0 -44 -10 -55 -48 -52 -17 1 -32 -3 -33 -8 -1 -6 -2 -24 -3 -41 -1
-28 -4 -30 -42 -33 -41 -3 -42 -4 -40 -40 1 -36 0 -37 -40 -40 l-41 -3 1 -77
1 -77 -42 -3 c-41 -3 -41 -4 -40 -40 2 -37 1 -37 -39 -40 l-42 -3 0 -122 0
-122 -34 -2 c-18 0 -36 -2 -40 -2 -5 -1 -8 -147 -8 -326 l0 -325 35 3 c20 3
38 0 41 -5 4 -5 6 -43 6 -84 l0 -74 39 0 c43 0 42 4 40 -92 l0 -67 42 -3 c41
-3 42 -3 41 -40 -1 -36 -1 -37 40 -40 39 -3 41 -5 42 -35 1 -18 2 -36 3 -40 0
-5 18 -8 38 -8 37 0 38 -1 38 -38 0 -20 3 -38 7 -38 5 -1 23 -2 41 -3 30 -1
32 -3 35 -42 l3 -42 70 2 c38 1 73 0 78 -4 5 -3 11 -21 13 -40 l3 -35 100 -2
c55 -1 109 -2 121 -2 17 -1 20 -7 20 -38 l-1 -38 406 -2 407 -1 -2 39 c-1 22
2 39 8 40 6 0 61 1 123 1 l112 1 3 40 3 41 75 0 75 1 5 40 c5 39 6 40 43 39
20 0 37 4 38 10 1 6 2 25 3 41 1 27 4 30 36 32 19 0 38 2 41 2 4 1 5 14 4 30
-3 31 6 53 21 50 5 -1 21 -1 35 0 24 1 27 5 25 39 -1 37 -1 37 41 40 l42 3 -1
67 c0 37 0 73 1 80 1 7 16 12 41 12 l40 0 0 83 0 83 40 -2 40 -1 0 327 0 327
-40 -3 -40 -3 0 84 c0 81 1 84 23 83 54 -2 57 0 57 42 l0 40 -40 0 -40 0 0 40
0 40 -40 0 c-31 0 -40 4 -41 18 -1 9 -2 44 -3 77 l-1 60 -40 5 c-38 5 -40 7
-40 40 0 33 -2 35 -40 40 -39 5 -40 6 -40 45 0 40 0 40 -37 38 -32 -2 -39 1
-44 21 -3 13 -4 32 -2 42 2 15 -4 19 -29 20 -51 2 -54 3 -52 17 1 6 1 24 0 38
-1 26 -2 26 -68 24 -38 0 -74 1 -80 3 -8 2 -13 21 -13 43 l0 38 -105 -2 c-133
-3 -144 1 -140 46 l4 35 -365 0 c-200 1 -364 -2 -365 -6z m399 -1090 l3 -122
39 0 c42 0 45 -4 40 -57 -1 -20 3 -23 39 -23 26 0 41 -5 42 -12 6 -61 3 -148
-6 -149 -5 -1 -97 -2 -203 -2 l-192 -2 -1 25 c-1 31 -1 202 0 213 1 4 19 7 41
7 l40 0 0 123 0 122 78 0 77 -1 3 -122z"/>
</g>
</svg>
